<svg xmlns="http://www.w3.org/2000/svg" xmlns:xlink="http://www.w3.org/1999/xlink" viewBox="0 0 150 50"><path d="M 137.669 0 L 11.919 0 C 11.46 0 11.006 -0 10.55 0.003 C 10.168 0.005 9.787 0.013 9.401 0.019 C 8.562 0.028 7.724 0.101 6.896 0.237 C 6.07 0.378 5.269 0.642 4.521 1.021 C 3.773 1.404 3.09 1.902 2.496 2.496 C 1.9 3.088 1.404 3.772 1.025 4.521 C 0.645 5.27 0.382 6.072 0.244 6.9 C 0.105 7.727 0.03 8.564 0.02 9.402 C 0.008 9.786 0.008 10.171 0.001 10.554 L 0.001 39.45 C 0.008 39.837 0.009 40.212 0.02 40.601 C 0.03 41.44 0.105 42.277 0.245 43.104 C 0.382 43.933 0.645 44.736 1.025 45.485 C 1.404 46.232 1.901 46.912 2.498 47.5 C 3.088 48.096 3.771 48.594 4.52 48.974 C 5.268 49.354 6.069 49.619 6.896 49.761 C 7.725 49.897 8.562 49.971 9.401 49.983 C 9.789 49.991 10.168 49.996 10.55 49.996 C 11.008 49.999 11.46 49.999 11.919 49.999 L 137.669 49.999 C 138.119 49.999 138.574 49.999 139.024 49.996 C 139.404 49.996 139.795 49.991 140.176 49.984 C 141.014 49.973 141.85 49.898 142.676 49.761 C 143.506 49.618 144.31 49.353 145.061 48.974 C 145.809 48.594 146.492 48.096 147.082 47.5 C 147.678 46.909 148.176 46.228 148.56 45.483 C 148.937 44.733 149.198 43.93 149.334 43.101 C 149.473 42.274 149.55 41.438 149.565 40.599 C 149.57 40.211 149.57 39.836 149.57 39.447 C 149.58 38.992 149.58 38.541 149.58 38.08 L 149.58 11.92 C 149.58 11.463 149.58 11.008 149.57 10.555 C 149.57 10.173 149.57 9.787 149.565 9.405 C 149.55 8.566 149.473 7.729 149.334 6.901 C 149.198 6.074 148.936 5.272 148.559 4.522 C 147.787 3.019 146.564 1.795 145.061 1.022 C 144.31 0.644 143.506 0.38 142.676 0.239 C 141.85 0.101 141.014 0.028 140.176 0.019 C 139.795 0.012 139.404 0.005 139.024 0.002 C 138.574 -0 138.118 0 137.669 0 Z" fill="rgb(166,166,166)"></path><path d="M 10.556 48.906 C 10.175 48.906 9.804 48.901 9.426 48.894 C 8.643 48.883 7.862 48.815 7.089 48.689 C 6.369 48.565 5.671 48.334 5.019 48.004 C 4.372 47.677 3.783 47.248 3.273 46.734 C 2.755 46.225 2.324 45.635 1.998 44.988 C 1.666 44.336 1.437 43.637 1.318 42.916 C 1.189 42.141 1.12 41.358 1.11 40.572 C 1.101 40.31 1.091 39.431 1.091 39.431 L 1.091 10.556 C 1.091 10.556 1.103 9.691 1.11 9.437 C 1.119 8.653 1.188 7.871 1.316 7.097 C 1.436 6.374 1.665 5.674 1.996 5.02 C 2.322 4.373 2.751 3.783 3.265 3.272 C 3.779 2.757 4.37 2.326 5.018 1.994 C 5.668 1.665 6.365 1.436 7.084 1.314 C 7.859 1.187 8.643 1.118 9.429 1.109 L 10.556 1.094 L 139.017 1.094 L 140.159 1.11 C 140.937 1.119 141.713 1.187 142.481 1.313 C 143.208 1.436 143.912 1.667 144.57 1.998 C 145.867 2.666 146.923 3.724 147.589 5.022 C 147.914 5.672 148.14 6.367 148.257 7.084 C 148.387 7.864 148.46 8.652 148.475 9.443 C 148.479 9.796 148.479 10.178 148.479 10.555 C 148.489 11.024 148.489 11.47 148.489 11.92 L 148.489 38.081 C 148.489 38.535 148.489 38.979 148.479 39.425 C 148.479 39.831 148.479 40.204 148.474 40.587 C 148.46 41.364 148.388 42.138 148.261 42.904 C 148.145 43.63 147.917 44.334 147.586 44.991 C 147.257 45.632 146.828 46.217 146.316 46.724 C 145.805 47.241 145.214 47.672 144.566 48.001 C 143.91 48.334 143.207 48.566 142.481 48.689 C 141.709 48.815 140.928 48.883 140.145 48.892 C 139.779 48.901 139.395 48.906 139.024 48.906 L 137.669 48.909 Z" fill="rgb(0,0,0)"></path><g transform="translate(12.465 10.9)" id="ss170900726_3"><g transform="translate(0 0)" id="ss170900726_4"><path d="M 18.497 14.475 C 18.524 12.355 19.636 10.397 21.442 9.286 C 20.297 7.651 18.449 6.652 16.454 6.589 C 14.354 6.369 12.319 7.845 11.249 7.845 C 10.159 7.845 8.512 6.61 6.739 6.647 C 4.406 6.723 2.283 8.017 1.148 10.057 C -1.27 14.242 0.534 20.394 2.849 23.778 C 4.008 25.434 5.362 27.284 7.134 27.219 C 8.868 27.146 9.515 26.112 11.609 26.112 C 13.682 26.112 14.289 27.219 16.097 27.178 C 17.958 27.146 19.129 25.513 20.247 23.84 C 21.08 22.66 21.721 21.355 22.147 19.975 C 19.936 19.041 18.499 16.875 18.497 14.475 Z M 15.082 4.363 C 16.096 3.145 16.596 1.58 16.475 0 C 14.925 0.163 13.494 0.904 12.465 2.075 C 11.45 3.23 10.936 4.741 11.035 6.275 C 12.606 6.291 14.097 5.586 15.082 4.363 Z" fill="rgb(255,255,255)"></path></g><path d="M 40.413 23.025 L 34.498 23.025 L 33.077 27.22 L 30.57 27.22 L 36.175 11.698 L 38.779 11.698 L 44.383 27.22 L 41.834 27.22 Z M 35.109 21.087 L 39.799 21.087 L 37.487 14.28 L 37.423 14.28 Z M 56.485 21.563 C 56.485 25.079 54.603 27.337 51.762 27.337 C 50.294 27.414 48.911 26.646 48.202 25.359 L 48.148 25.359 L 48.148 30.964 L 45.823 30.964 L 45.823 15.902 L 48.073 15.902 L 48.073 17.785 L 48.114 17.785 C 48.855 16.506 50.24 15.737 51.718 15.785 C 54.59 15.785 56.484 18.055 56.484 21.563 Z M 54.098 21.563 C 54.098 19.271 52.913 17.765 51.107 17.765 C 49.332 17.765 48.138 19.302 48.138 21.563 C 48.138 23.843 49.332 25.37 51.107 25.37 C 52.913 25.37 54.098 23.874 54.098 21.563 Z M 68.942 21.563 C 68.942 25.079 67.059 27.337 64.218 27.337 C 62.75 27.414 61.368 26.646 60.658 25.359 L 60.604 25.359 L 60.604 30.964 L 58.28 30.964 L 58.28 15.902 L 60.529 15.902 L 60.529 17.785 L 60.572 17.785 C 61.313 16.506 62.697 15.737 64.175 15.785 C 67.048 15.785 68.942 18.055 68.942 21.563 Z M 66.554 21.563 C 66.554 19.271 65.369 17.765 63.563 17.765 C 61.788 17.765 60.594 19.302 60.594 21.563 C 60.594 23.843 61.788 25.37 63.563 25.37 C 65.369 25.37 66.553 23.874 66.553 21.563 Z M 77.173 22.895 C 77.345 24.435 78.84 25.445 80.885 25.445 C 82.843 25.445 84.252 24.435 84.252 23.046 C 84.252 21.841 83.402 21.121 81.389 20.626 L 79.378 20.141 C 76.528 19.454 75.204 18.12 75.204 15.956 C 75.204 13.279 77.538 11.439 80.853 11.439 C 84.133 11.439 86.382 13.279 86.457 15.956 L 84.112 15.956 C 83.972 14.407 82.692 13.472 80.819 13.472 C 78.947 13.472 77.668 14.419 77.668 15.795 C 77.668 16.892 78.485 17.539 80.487 18.032 L 82.197 18.452 C 85.382 19.206 86.704 20.485 86.704 22.756 C 86.704 25.66 84.392 27.479 80.713 27.479 C 77.27 27.479 74.945 25.704 74.795 22.895 Z M 91.718 13.225 L 91.718 15.902 L 93.87 15.902 L 93.87 17.742 L 91.718 17.742 L 91.718 23.981 C 91.718 24.951 92.149 25.403 93.095 25.403 C 93.351 25.398 93.606 25.38 93.859 25.349 L 93.859 27.178 C 93.434 27.257 93.002 27.293 92.569 27.285 C 90.278 27.285 89.384 26.424 89.384 24.229 L 89.384 17.742 L 87.739 17.742 L 87.739 15.902 L 89.384 15.902 L 89.384 13.225 Z M 95.117 21.563 C 95.117 18.001 97.214 15.764 100.484 15.764 C 103.765 15.764 105.853 18.001 105.853 21.563 C 105.853 25.133 103.777 27.36 100.484 27.36 C 97.193 27.36 95.117 25.132 95.117 21.563 Z M 103.485 21.563 C 103.485 19.12 102.367 17.677 100.484 17.677 C 98.602 17.677 97.484 19.13 97.484 21.563 C 97.484 24.015 98.602 25.445 100.484 25.445 C 102.367 25.445 103.485 24.015 103.485 21.563 Z M 107.768 15.902 L 109.984 15.902 L 109.984 17.829 L 110.038 17.829 C 110.347 16.59 111.483 15.737 112.759 15.785 C 113.027 15.784 113.294 15.813 113.555 15.871 L 113.555 18.044 C 113.217 17.941 112.865 17.893 112.512 17.904 C 111.829 17.876 111.168 18.148 110.702 18.649 C 110.237 19.149 110.013 19.828 110.09 20.507 L 110.09 27.22 L 107.768 27.22 Z M 124.265 23.896 C 123.953 25.95 121.953 27.36 119.393 27.36 C 116.1 27.36 114.057 25.155 114.057 21.616 C 114.057 18.066 116.112 15.764 119.294 15.764 C 122.427 15.764 124.394 17.914 124.394 21.346 L 124.394 22.143 L 116.402 22.143 L 116.402 22.282 C 116.327 23.125 116.618 23.959 117.201 24.572 C 117.783 25.185 118.601 25.519 119.447 25.487 C 120.573 25.593 121.636 24.946 122.059 23.896 Z M 116.413 20.519 L 122.07 20.519 C 122.113 19.762 121.837 19.021 121.311 18.476 C 120.784 17.931 120.053 17.63 119.295 17.646 C 118.531 17.642 117.797 17.942 117.256 18.482 C 116.714 19.021 116.411 19.755 116.413 20.519 Z" fill="rgb(255,255,255)"></path></g><path d="M 47.282 10.914 C 48.269 10.843 49.235 11.218 49.915 11.936 C 50.595 12.654 50.917 13.639 50.792 14.62 C 50.792 17.003 49.505 18.373 47.282 18.373 L 44.589 18.373 L 44.589 10.913 Z M 45.747 17.318 L 47.154 17.318 C 47.858 17.359 48.544 17.081 49.021 16.561 C 49.498 16.041 49.715 15.333 49.612 14.635 C 49.708 13.94 49.488 13.238 49.012 12.722 C 48.536 12.205 47.855 11.929 47.154 11.967 L 45.747 11.967 Z M 52.1 15.555 C 52.007 14.548 52.492 13.575 53.352 13.043 C 54.212 12.511 55.298 12.511 56.158 13.043 C 57.018 13.575 57.503 14.548 57.41 15.555 C 57.511 16.566 57.028 17.547 56.165 18.084 C 55.302 18.621 54.209 18.621 53.346 18.084 C 52.483 17.547 52.001 16.566 52.101 15.555 Z M 56.267 15.555 C 56.267 14.335 55.719 13.621 54.758 13.621 C 53.791 13.621 53.249 14.335 53.249 15.555 C 53.249 16.785 53.791 17.493 54.758 17.493 C 55.72 17.493 56.267 16.78 56.267 15.555 Z M 64.466 18.373 L 63.314 18.373 L 62.151 14.226 L 62.064 14.226 L 60.905 18.373 L 59.764 18.373 L 58.211 12.744 L 59.339 12.744 L 60.346 17.039 L 60.43 17.039 L 61.588 12.744 L 62.653 12.744 L 63.81 17.039 L 63.898 17.039 L 64.901 12.744 L 66.013 12.744 Z M 67.317 12.744 L 68.386 12.744 L 68.386 13.637 L 68.469 13.637 C 68.758 12.979 69.432 12.577 70.149 12.635 C 70.704 12.593 71.247 12.806 71.626 13.213 C 72.005 13.621 72.179 14.178 72.097 14.729 L 72.097 18.373 L 70.986 18.373 L 70.986 15.008 C 70.986 14.103 70.594 13.653 69.771 13.653 C 69.395 13.635 69.03 13.783 68.772 14.057 C 68.513 14.331 68.388 14.704 68.427 15.079 L 68.427 18.373 L 67.317 18.373 Z M 73.867 10.546 L 74.977 10.546 L 74.977 18.371 L 73.867 18.371 Z M 76.522 15.555 C 76.427 14.547 76.911 13.571 77.772 13.038 C 78.632 12.504 79.721 12.504 80.582 13.038 C 81.443 13.571 81.927 14.547 81.831 15.555 C 81.932 16.566 81.449 17.547 80.586 18.084 C 79.723 18.621 78.63 18.621 77.767 18.084 C 76.905 17.547 76.422 16.566 76.522 15.555 Z M 80.689 15.555 C 80.689 14.335 80.14 13.621 79.179 13.621 C 78.212 13.621 77.67 14.335 77.67 15.555 C 77.67 16.785 78.212 17.492 79.179 17.492 C 80.141 17.492 80.689 16.78 80.689 15.555 Z M 83 16.78 C 83 15.768 83.755 15.182 85.095 15.1 L 86.62 15.012 L 86.62 14.526 C 86.62 13.933 86.226 13.596 85.468 13.596 C 84.846 13.596 84.418 13.824 84.294 14.221 L 83.219 14.221 C 83.331 13.255 84.241 12.634 85.519 12.634 C 86.929 12.634 87.725 13.338 87.725 14.526 L 87.725 18.373 L 86.656 18.373 L 86.656 17.581 L 86.569 17.581 C 86.205 18.159 85.559 18.497 84.878 18.465 C 84.4 18.515 83.923 18.36 83.565 18.039 C 83.208 17.718 83.003 17.261 83.001 16.78 Z M 86.619 16.3 L 86.619 15.829 L 85.244 15.916 C 84.469 15.969 84.119 16.232 84.119 16.729 C 84.119 17.235 84.557 17.529 85.161 17.529 C 85.519 17.565 85.875 17.454 86.15 17.223 C 86.425 16.991 86.594 16.658 86.619 16.3 Z M 89.185 15.555 C 89.185 13.776 90.1 12.65 91.522 12.65 C 92.24 12.617 92.912 13.002 93.247 13.637 L 93.331 13.637 L 93.331 10.546 L 94.441 10.546 L 94.441 18.371 L 93.377 18.371 L 93.377 17.484 L 93.29 17.484 C 92.929 18.114 92.247 18.492 91.521 18.465 C 90.09 18.465 89.185 17.339 89.185 15.555 Z M 90.332 15.555 C 90.332 16.749 90.895 17.467 91.836 17.467 C 92.774 17.467 93.351 16.739 93.351 15.56 C 93.351 14.387 92.766 13.647 91.836 13.647 C 90.901 13.647 90.332 14.372 90.332 15.555 Z M 99.037 15.555 C 98.942 14.547 99.426 13.571 100.287 13.038 C 101.147 12.504 102.236 12.504 103.097 13.038 C 103.958 13.571 104.442 14.547 104.346 15.555 C 104.447 16.566 103.964 17.547 103.101 18.084 C 102.238 18.621 101.145 18.621 100.282 18.084 C 99.42 17.547 98.937 16.566 99.037 15.555 Z M 103.204 15.555 C 103.204 14.335 102.656 13.621 101.694 13.621 C 100.729 13.621 100.185 14.335 100.185 15.555 C 100.185 16.785 100.729 17.492 101.694 17.492 C 102.656 17.492 103.204 16.78 103.204 15.555 Z M 105.837 12.744 L 106.906 12.744 L 106.906 13.637 L 106.989 13.637 C 107.278 12.979 107.952 12.577 108.669 12.635 C 109.224 12.593 109.767 12.806 110.146 13.213 C 110.525 13.621 110.699 14.178 110.617 14.729 L 110.617 18.372 L 109.506 18.372 L 109.506 15.007 C 109.506 14.102 109.114 13.652 108.291 13.652 C 107.915 13.635 107.55 13.783 107.292 14.057 C 107.033 14.331 106.908 14.704 106.948 15.079 L 106.948 18.372 L 105.836 18.372 Z M 116.894 11.342 L 116.894 12.769 L 118.114 12.769 L 118.114 13.705 L 116.894 13.705 L 116.894 16.599 C 116.894 17.189 117.136 17.447 117.69 17.447 C 117.832 17.447 117.973 17.438 118.114 17.421 L 118.114 18.346 C 117.914 18.382 117.712 18.401 117.509 18.404 C 116.274 18.404 115.782 17.969 115.782 16.884 L 115.782 13.705 L 114.889 13.705 L 114.889 12.769 L 115.782 12.769 L 115.782 11.343 Z M 119.631 10.546 L 120.731 10.546 L 120.731 13.647 L 120.819 13.647 C 121.122 12.983 121.809 12.58 122.536 12.64 C 123.088 12.61 123.624 12.828 123.999 13.234 C 124.373 13.639 124.548 14.191 124.474 14.739 L 124.474 18.372 L 123.362 18.372 L 123.362 15.013 C 123.362 14.113 122.944 13.658 122.159 13.658 C 121.772 13.626 121.391 13.766 121.118 14.042 C 120.845 14.317 120.707 14.699 120.741 15.085 L 120.741 18.373 L 119.631 18.373 Z M 130.951 16.852 C 130.64 17.914 129.613 18.6 128.514 18.481 C 127.763 18.502 127.041 18.191 126.54 17.631 C 126.039 17.071 125.809 16.319 125.912 15.575 C 125.813 14.829 126.042 14.077 126.539 13.513 C 127.037 12.949 127.755 12.629 128.507 12.635 C 130.074 12.635 131.019 13.705 131.019 15.472 L 131.019 15.86 L 127.044 15.86 L 127.044 15.922 C 127.008 16.34 127.151 16.754 127.437 17.061 C 127.722 17.368 128.124 17.54 128.544 17.535 C 129.087 17.599 129.615 17.33 129.881 16.852 Z M 127.044 15.039 L 129.887 15.039 C 129.916 14.656 129.782 14.28 129.518 14.002 C 129.254 13.724 128.884 13.571 128.501 13.58 C 128.113 13.575 127.739 13.727 127.465 14.002 C 127.191 14.277 127.039 14.651 127.044 15.039 Z" fill="rgb(255,255,255)"></path></svg>