<svg xmlns="http://www.w3.org/2000/svg" xmlns:xlink="http://www.w3.org/1999/xlink" viewBox="0 0 170 50"><path d="M 163.695 50.296 L 6.298 50.296 C 2.827 50.296 0 47.461 0 44.009 L 0 6.287 C 0 2.822 2.827 0 6.298 0 L 163.695 0 C 167.164 0 169.994 2.822 169.994 6.287 L 169.994 44.009 C 169.994 47.461 167.164 50.296 163.695 50.296 Z" fill="rgb(0,0,0)"></path><path d="M 163.695 1.007 C 166.607 1.007 168.99 3.38 168.99 6.287 L 168.99 44.009 C 168.99 46.916 166.623 49.289 163.695 49.289 L 6.298 49.289 C 3.387 49.289 1.004 46.916 1.004 44.009 L 1.004 6.287 C 1.004 3.38 3.371 1.007 6.298 1.007 Z M 163.695 0 L 6.298 0 C 2.827 0 0 2.835 0 6.287 L 0 44.009 C 0 47.474 2.827 50.296 6.298 50.296 L 163.695 50.296 C 167.164 50.296 169.994 47.474 169.994 44.009 L 169.994 6.287 C 169.994 2.835 167.164 0 163.695 0 Z" fill="rgb(166,166,166)"></path><path d="M 89.553 16.638 C 88.418 16.638 87.461 16.24 86.704 15.456 C 85.954 14.694 85.535 13.643 85.554 12.571 C 85.554 11.426 85.941 10.457 86.704 9.689 C 87.458 8.905 88.415 8.507 89.55 8.507 C 90.673 8.507 91.63 8.905 92.399 9.689 C 93.162 10.483 93.55 11.451 93.55 12.571 C 93.538 13.719 93.15 14.687 92.399 15.453 C 91.646 16.243 90.689 16.638 89.553 16.638 Z M 55.775 16.638 C 54.665 16.638 53.702 16.246 52.914 15.471 C 52.132 14.7 51.735 13.725 51.735 12.574 C 51.735 11.423 52.132 10.448 52.914 9.677 C 53.686 8.902 54.65 8.51 55.775 8.51 C 56.326 8.51 56.861 8.62 57.373 8.843 C 57.877 9.059 58.287 9.354 58.59 9.714 L 58.665 9.805 L 57.818 10.639 L 57.73 10.536 C 57.251 9.965 56.61 9.686 55.763 9.686 C 55.006 9.686 54.346 9.956 53.802 10.489 C 53.255 11.025 52.976 11.727 52.976 12.577 C 52.976 13.427 53.255 14.129 53.802 14.665 C 54.346 15.199 55.006 15.468 55.763 15.468 C 56.57 15.468 57.248 15.199 57.777 14.665 C 58.09 14.352 58.283 13.913 58.352 13.358 L 55.635 13.358 L 55.635 12.185 L 59.519 12.185 L 59.534 12.292 C 59.563 12.489 59.591 12.693 59.591 12.881 C 59.591 13.963 59.265 14.838 58.621 15.484 C 57.889 16.249 56.932 16.638 55.775 16.638 Z M 100.687 16.472 L 99.489 16.472 L 95.82 10.586 L 95.852 11.646 L 95.852 16.468 L 94.654 16.468 L 94.654 8.676 L 96.021 8.676 L 96.058 8.736 L 99.508 14.28 L 99.476 13.223 L 99.476 8.676 L 100.687 8.676 Z M 80.553 16.472 L 79.34 16.472 L 79.34 9.849 L 77.235 9.849 L 77.235 8.676 L 82.655 8.676 L 82.655 9.849 L 80.55 9.849 L 80.55 16.472 Z M 76.247 16.472 L 75.036 16.472 L 75.036 8.676 L 76.247 8.676 Z M 69.445 16.472 L 68.235 16.472 L 68.235 9.849 L 66.13 9.849 L 66.13 8.676 L 71.549 8.676 L 71.549 9.849 L 69.445 9.849 Z M 65.364 16.459 L 60.723 16.459 L 60.723 8.676 L 65.364 8.676 L 65.364 9.849 L 61.936 9.849 L 61.936 11.988 L 65.029 11.988 L 65.029 13.148 L 61.936 13.148 L 61.936 15.286 L 65.364 15.286 Z M 87.593 14.65 C 88.134 15.192 88.79 15.465 89.553 15.465 C 90.338 15.465 90.979 15.199 91.514 14.65 C 92.046 14.117 92.315 13.417 92.315 12.574 C 92.315 11.731 92.046 11.028 91.517 10.498 C 90.976 9.956 90.316 9.683 89.556 9.683 C 88.772 9.683 88.13 9.949 87.599 10.498 C 87.067 11.031 86.798 11.731 86.798 12.574 C 86.798 13.417 87.064 14.12 87.593 14.65 Z" fill="rgb(255,255,255)"></path><path d="M 85.441 27.356 C 82.486 27.356 80.09 29.604 80.09 32.705 C 80.09 35.778 82.501 38.054 85.441 38.054 C 88.396 38.054 90.792 35.79 90.792 32.705 C 90.792 29.604 88.396 27.356 85.441 27.356 Z M 85.441 35.935 C 83.824 35.935 82.432 34.593 82.432 32.692 C 82.432 30.764 83.827 29.45 85.441 29.45 C 87.058 29.45 88.449 30.764 88.449 32.692 C 88.453 34.605 87.058 35.935 85.441 35.935 Z M 73.767 27.356 C 70.811 27.356 68.416 29.604 68.416 32.705 C 68.416 35.778 70.827 38.054 73.767 38.054 C 76.722 38.054 79.118 35.79 79.118 32.705 C 79.118 29.604 76.719 27.356 73.767 27.356 Z M 73.767 35.935 C 72.15 35.935 70.758 34.593 70.758 32.692 C 70.758 30.764 72.153 29.45 73.767 29.45 C 75.384 29.45 76.775 30.764 76.775 32.692 C 76.775 34.605 75.384 35.935 73.767 35.935 Z M 59.875 28.989 L 59.875 31.253 L 65.295 31.253 C 65.129 32.523 64.71 33.461 64.069 34.103 C 63.275 34.9 62.049 35.765 59.888 35.765 C 56.557 35.765 53.952 33.069 53.952 29.729 C 53.952 26.39 56.557 23.693 59.888 23.693 C 61.686 23.693 62.996 24.405 63.969 25.314 L 65.57 23.709 C 64.219 22.411 62.421 21.417 59.9 21.417 C 55.331 21.417 51.497 25.148 51.497 29.717 C 51.497 34.298 55.328 38.017 59.9 38.017 C 62.368 38.017 64.219 37.208 65.683 35.684 C 67.174 34.188 67.647 32.078 67.647 30.375 C 67.647 29.845 67.606 29.369 67.522 28.964 L 59.872 28.964 C 59.875 28.961 59.875 28.989 59.875 28.989 Z M 116.695 30.751 C 116.248 29.55 114.897 27.343 112.126 27.343 C 109.38 27.343 107.097 29.51 107.097 32.692 C 107.097 35.696 109.355 38.042 112.392 38.042 C 114.831 38.042 116.251 36.546 116.836 35.668 L 115.025 34.452 C 114.425 35.345 113.59 35.932 112.405 35.932 C 111.207 35.932 110.369 35.386 109.812 34.31 L 116.945 31.347 C 116.945 31.35 116.695 30.751 116.695 30.751 Z M 109.421 32.539 C 109.365 30.472 111.022 29.422 112.208 29.422 C 113.143 29.422 113.921 29.883 114.187 30.554 Z M 103.626 37.722 L 105.969 37.722 L 105.969 22.006 L 103.626 22.006 Z M 99.78 28.544 L 99.695 28.544 C 99.167 27.914 98.163 27.343 96.881 27.343 C 94.219 27.343 91.767 29.692 91.767 32.708 C 91.767 35.712 94.207 38.032 96.881 38.032 C 98.147 38.032 99.167 37.459 99.695 36.816 L 99.78 36.816 L 99.78 37.584 C 99.78 39.625 98.691 40.726 96.937 40.726 C 95.501 40.726 94.61 39.691 94.247 38.826 L 92.212 39.679 C 92.796 41.09 94.357 42.836 96.934 42.836 C 99.68 42.836 102.006 41.215 102.006 37.261 L 102.006 27.663 L 99.792 27.663 L 99.792 28.544 Z M 97.09 35.935 C 95.473 35.935 94.122 34.58 94.122 32.708 C 94.122 30.82 95.473 29.453 97.09 29.453 C 98.691 29.453 99.933 30.836 99.933 32.708 C 99.948 34.58 98.694 35.935 97.09 35.935 Z M 127.663 22.006 L 122.062 22.006 L 122.062 37.722 L 124.404 37.722 L 124.404 31.771 L 127.666 31.771 C 130.258 31.771 132.807 29.886 132.807 26.895 C 132.807 23.903 130.268 22.006 127.663 22.006 Z M 127.731 29.576 L 124.401 29.576 L 124.401 24.182 L 127.731 24.182 C 129.486 24.182 130.477 25.634 130.477 26.879 C 130.477 28.111 129.473 29.576 127.731 29.576 Z M 142.195 27.327 C 140.494 27.327 138.74 28.083 138.014 29.729 L 140.091 30.595 C 140.538 29.729 141.357 29.434 142.223 29.434 C 143.437 29.434 144.663 30.162 144.691 31.46 L 144.691 31.626 C 144.272 31.388 143.352 31.024 142.251 31.024 C 140.009 31.024 137.736 32.253 137.736 34.558 C 137.736 36.668 139.575 38.023 141.623 38.023 C 143.196 38.023 144.062 37.311 144.603 36.487 L 144.688 36.487 L 144.688 37.703 L 146.946 37.703 L 146.946 31.683 C 146.946 28.879 144.869 27.327 142.195 27.327 Z M 141.901 35.935 C 141.135 35.935 140.062 35.558 140.062 34.593 C 140.062 33.376 141.401 32.915 142.542 32.915 C 143.574 32.915 144.062 33.138 144.675 33.445 C 144.506 34.856 143.318 35.922 141.901 35.935 Z M 155.183 27.663 L 152.493 34.48 L 152.409 34.48 L 149.623 27.663 L 147.102 27.663 L 151.283 37.192 L 148.9 42.488 L 151.339 42.488 L 157.772 27.663 Z M 134.099 37.722 L 136.441 37.722 L 136.441 22.006 L 134.099 22.006 Z" fill="rgb(255,255,255)"></path><g><defs><linearGradient id="idss2365901301_5g1673948333" gradientTransform="rotate(134.99983142796754, 0.5, 0.5)"><stop offset="0" stop-color="rgb(0,160,255)" stop-opacity="1"></stop><stop offset="1" stop-color="rgb(0,227,255)" stop-opacity="1"></stop></linearGradient></defs><path d="M 13.085 9.473 C 12.722 9.865 12.512 10.464 12.512 11.248 L 12.512 39.052 C 12.512 39.835 12.722 40.434 13.097 40.811 L 13.194 40.895 L 28.731 25.317 L 28.731 24.969 L 13.182 9.388 Z" fill="url(#idss2365901301_5g1673948333)"></path></g><g><defs><linearGradient id="idss2365901301_6g43703969" gradientTransform="rotate(180, 0.5, 0.5)"><stop offset="0" stop-color="rgb(255,224,0)" stop-opacity="1"></stop><stop offset="1" stop-color="rgb(255,156,0)" stop-opacity="1"></stop></linearGradient></defs><path d="M 33.9 30.526 L 28.718 25.33 L 28.718 24.966 L 33.9 19.77 L 34.013 19.839 L 40.142 23.332 C 41.896 24.323 41.896 25.96 40.142 26.964 L 34.013 30.457 Z" fill="url(#idss2365901301_6g43703969)"></path></g><g><defs><linearGradient id="idss2365901301_7g1458251021" gradientTransform="rotate(135.00048092183692, 0.5, 0.5)"><stop offset="0" stop-color="rgb(255,58,68)" stop-opacity="1"></stop><stop offset="1" stop-color="rgb(195,17,98)" stop-opacity="1"></stop></linearGradient></defs><path d="M 34.013 30.457 L 28.718 25.148 L 13.085 40.823 C 13.657 41.438 14.617 41.507 15.69 40.908 L 34.013 30.457" fill="url(#idss2365901301_7g1458251021)"></path></g><g><defs><linearGradient id="idss2365901301_8g-2043038355" gradientTransform="rotate(45.001227908244516, 0.5, 0.5)"><stop offset="0" stop-color="rgb(50,160,113)" stop-opacity="1"></stop><stop offset="1" stop-color="rgb(0,240,118)" stop-opacity="1"></stop></linearGradient></defs><path d="M 34.013 19.839 L 15.69 9.404 C 14.617 8.789 13.654 8.874 13.085 9.489 L 28.718 25.148 Z" fill="url(#idss2365901301_8g-2043038355)"></path></g><path d="M 33.9 30.344 L 15.702 40.71 C 14.686 41.297 13.779 41.256 13.194 40.723 L 13.097 40.82 L 13.194 40.905 C 13.779 41.435 14.686 41.479 15.702 40.892 L 34.025 30.457 Z" fill="rgb(0,0,0)" opacity="0.2"></path><path d="M 40.142 26.782 L 33.884 30.344 L 33.997 30.457 L 40.126 26.964 C 41.005 26.462 41.437 25.803 41.437 25.148 C 41.384 25.75 40.936 26.321 40.142 26.782 Z" fill="rgb(0,0,0)" opacity="0.12"></path><path d="M 15.69 9.586 L 40.142 23.514 C 40.936 23.963 41.384 24.549 41.452 25.148 C 41.452 24.493 41.021 23.834 40.142 23.332 L 15.69 9.404 C 13.935 8.397 12.512 9.238 12.512 11.248 L 12.512 11.429 C 12.512 9.416 13.935 8.592 15.69 9.586 Z" fill="rgb(255,255,255)" opacity="0.25"></path></svg>